name ./resultDataOpenSim/trcMotMarkerGrf/sub10/grf-05-08.mot
datacolumns 19
datarows 12
range 0.52800000 0.57200000
endheader

                time	     ground_force_vx	     ground_force_vy	     ground_force_vz	     ground_force_px	     ground_force_py	     ground_force_pz	   l_ground_force_vx	   l_ground_force_vy	   l_ground_force_vz	   l_ground_force_px	   l_ground_force_py	   l_ground_force_pz	     ground_torque_x	     ground_torque_y	     ground_torque_z	   l_ground_torque_x	   l_ground_torque_y	   l_ground_torque_z	
          0.52800000	         43.12329077	        425.10656289	        -16.97133066	         -0.82329659	          0.00000000	          0.04397087	          0.00000000	          0.00000000	          0.00000000	          0.00000000	          0.00000000	          0.00000000	          0.00000000	          2.55267704	          0.00000000	          0.00000000	          0.00000000	          0.00000000	
          0.53200000	         46.88444937	        430.12107043	        -16.68635405	         -0.82307279	          0.00000000	          0.04406692	          0.00000000	          0.00000000	          0.00000000	          0.00000000	          0.00000000	          0.00000000	          0.00000000	          2.65093684	          0.00000000	          0.00000000	          0.00000000	          0.00000000	
          0.53600000	         50.64101364	        435.36331532	        -16.37231446	         -0.82278005	          0.00000000	          0.04417361	          0.00000000	          0.00000000	          0.00000000	          0.00000000	          0.00000000	          0.00000000	          0.00000000	          2.75734620	          0.00000000	          0.00000000	          0.00000000	          0.00000000	
          0.54000000	         54.29827988	        440.72068128	        -16.20169532	         -0.82236920	          0.00000000	          0.04428905	          0.00000000	          0.00000000	          0.00000000	          0.00000000	          0.00000000	          0.00000000	          0.00000000	          2.86506353	          0.00000000	          0.00000000	          0.00000000	          0.00000000	
          0.54400000	         57.77101598	        446.09660013	        -16.31883619	         -0.82179636	          0.00000000	          0.04441112	          0.00000000	          0.00000000	          0.00000000	          0.00000000	          0.00000000	          0.00000000	          0.00000000	          2.96827647	          0.00000000	          0.00000000	          0.00000000	          0.00000000	
          0.54800000	         60.98623388	        451.41770538	        -16.81109499	         -0.82102940	          0.00000000	          0.04454555	          0.00000000	          0.00000000	          0.00000000	          0.00000000	          0.00000000	          0.00000000	          0.00000000	          3.06351349	          0.00000000	          0.00000000	          0.00000000	          0.00000000	
          0.55200000	         63.88499737	        456.63484181	        -17.69317422	         -0.82004552	          0.00000000	          0.04470831	          0.00000000	          0.00000000	          0.00000000	          0.00000000	          0.00000000	          0.00000000	          0.00000000	          3.15038885	          0.00000000	          0.00000000	          0.00000000	          0.00000000	
          0.55600000	         66.42228334	        461.72864871	        -18.90836499	         -0.81882496	          0.00000000	          0.04491569	          0.00000000	          0.00000000	          0.00000000	          0.00000000	          0.00000000	          0.00000000	          0.00000000	          3.23172827	          0.00000000	          0.00000000	          0.00000000	          0.00000000	
          0.56000000	         68.56741709	        466.71722896	        -20.34593901	         -0.81735885	          0.00000000	          0.04517317	          0.00000000	          0.00000000	          0.00000000	          0.00000000	          0.00000000	          0.00000000	          0.00000000	          3.31302306	          0.00000000	          0.00000000	          0.00000000	          0.00000000	
          0.56400000	         70.30882757	        471.65095393	        -21.86975573	         -0.81565542	          0.00000000	          0.04547532	          0.00000000	          0.00000000	          0.00000000	          0.00000000	          0.00000000	          0.00000000	          0.00000000	          3.40120163	          0.00000000	          0.00000000	          0.00000000	          0.00000000	
          0.56800000	         71.66045445	        476.59315865	        -23.35165388	         -0.81373013	          0.00000000	          0.04581229	          0.00000000	          0.00000000	          0.00000000	          0.00000000	          0.00000000	          0.00000000	          0.00000000	          3.50288293	          0.00000000	          0.00000000	          0.00000000	          0.00000000	
          0.57200000	         72.66189893	        481.60204982	        -24.70126033	         -0.81160347	          0.00000000	          0.04617271	          0.00000000	          0.00000000	          0.00000000	          0.00000000	          0.00000000	          0.00000000	          0.00000000	          3.62253037	          0.00000000	          0.00000000	          0.00000000	          0.00000000	
